<?xml version="1.0" encoding="UTF-8" standalone="no"?>
<!-- Created with Inkscape (http://www.inkscape.org/) -->

<svg
   width="91.864983mm"
   height="40.716225mm"
   viewBox="0 0 91.864983 40.716225"
   version="1.1"
   id="svg1081"
   xmlns:inkscape="http://www.inkscape.org/namespaces/inkscape"
   xmlns:sodipodi="http://sodipodi.sourceforge.net/DTD/sodipodi-0.dtd"
   xmlns="http://www.w3.org/2000/svg"
   xmlns:svg="http://www.w3.org/2000/svg">
  <sodipodi:namedview
     id="namedview1083"
     pagecolor="#ffffff"
     bordercolor="#666666"
     borderopacity="1.0"
     inkscape:showpageshadow="2"
     inkscape:pageopacity="0.0"
     inkscape:pagecheckerboard="0"
     inkscape:deskcolor="#d1d1d1"
     inkscape:document-units="mm"
     showgrid="false" />
  <defs
     id="defs1078">
    <clipPath
       clipPathUnits="userSpaceOnUse"
       id="clipPath894">
      <path
         d="m 682.0279,3197.9225 h 45.26 c 0,23.0224 -16.2204,22.8918 -16.2204,22.8918 h -29.0396 v 11.1186 h 34.403 c 0,23.0224 -16.2204,22.7608 -16.2204,22.7608 h -18.1826 v 10.8572 h 45.26 c 0,23.0225 -16.2204,22.8918 -16.2204,22.8918 h -51.931 v -74.5614 c 0,0 -0.131,-15.9588 22.8914,-15.9588 z m 60.5467,67.4978 h 17.7899 v -51.4083 c 0,0 -0.2616,-16.0895 22.7608,-16.0895 v 67.4978 h 33.8797 c 0,23.0224 -16.0895,22.7607 -16.0895,22.7607 h -74.4307 c 0,-23.0224 16.0898,-22.7607 16.0898,-22.7607"
         id="path892" />
    </clipPath>
  </defs>
  <g
     inkscape:label="Camada 1"
     inkscape:groupmode="layer"
     id="layer1"
     transform="translate(-55.896589,-91.088674)">
    <g
       id="g1390"
       transform="translate(-71.234043,-2.8723404)">
      <path
         d="m 155.47431,116.62794 h -8.46151 c -1.5578,0 -2.82039,-1.26291 -2.82039,-2.82053 v 0 c 0,-1.55779 1.26259,-2.8206 2.82039,-2.8206 h 8.46151 z m -0.2741,-11.28201 h -8.18741 c -4.67307,0 -8.46159,3.78831 -8.46159,8.46148 v 0 c 0,4.67311 3.78852,8.46141 8.46159,8.46141 h 14.1025 v -11.00779 c 0,-3.2669 -2.6482,-5.9151 -5.91509,-5.9151"
         style="fill:#ffffff;fill-opacity:1;fill-rule:nonzero;stroke:none;stroke-width:0.352778"
         id="path880" />
      <path
         d="m 146.92552,99.616715 h 8.4836 c 3.1236,0 5.65559,-2.532097 5.65559,-5.655592 h -14.13919 c -10.93241,0 -19.79489,8.862417 -19.79489,19.794887 v 0 c 0,10.93241 8.86248,19.79493 19.79489,19.79493 h 8.4836 c 3.1236,0 5.65559,-2.53221 5.65559,-5.6557 v -5.6557 h -5.65559 v 5.6557 h -8.4836 c -7.80881,0 -14.13919,-6.33042 -14.13919,-14.13923 v 0 c 0,-7.80887 6.33038,-14.139295 14.13919,-14.139295"
         style="fill:#ffffff;fill-opacity:1;fill-rule:nonzero;stroke:none;stroke-width:0.352778"
         id="path882" />
      <path
         d="m 155.47431,123.67912 h 5.64099 v -1.4103 h -5.64099 z"
         style="fill:#ffffff;fill-opacity:1;fill-rule:nonzero;stroke:none;stroke-width:0.352778"
         id="path884" />
      <path
         d="m 171.3787,125.89453 h 15.96672 c 0,-8.12179 -5.72219,-8.07572 -5.72219,-8.07572 H 171.3787 v -3.92239 h 12.13661 c 0,-8.12179 -5.72219,-8.02951 -5.72219,-8.02951 h -6.41442 v -3.83017 h 15.96672 c 0,-8.121831 -5.72219,-8.075722 -5.72219,-8.075722 h -18.32011 v 26.303602 c 0,0 -0.0462,5.62991 8.07558,5.62991 z m 21.35953,-23.81172 h 6.27588 v 18.1357 c 0,0 -0.0923,5.67602 8.02951,5.67602 v -23.81172 h 11.952 c 0,-8.121792 -5.67602,-8.029471 -5.67602,-8.029471 h -26.25749 c 0,8.121791 5.67612,8.029471 5.67612,8.029471"
         style="fill:#ffffff;fill-opacity:1;fill-rule:nonzero;stroke:none;stroke-width:0.352778"
         id="path886" />
      <g
         id="g888"
         transform="matrix(0.35277777,0,0,-0.35277777,-69.225581,1254.0505)">
        <g
           id="g890"
           clip-path="url(#clipPath894)" />
      </g>
      <path
         d="m 164.70831,133.54332 c 0.78881,0 1.2597,-0.5522 1.27751,-1.11908 0.0217,-0.69021 -0.5237,-0.90721 -1.00679,-1.0649 -0.39021,-0.1331 -0.72782,-0.21703 -0.71871,-0.50782 0.007,-0.23171 0.18549,-0.40919 0.51579,-0.40919 0.28099,0 0.49431,0.11338 0.64001,0.34509 l 0.56519,-0.4191 c -0.28131,-0.30071 -0.61451,-0.52261 -1.1913,-0.52261 -0.69028,0 -1.20738,0.45361 -1.22551,1.03043 -0.0216,0.68527 0.5051,0.86769 0.9883,1.02549 0.37582,0.11829 0.74253,0.21689 0.73311,0.5176 -0.008,0.25149 -0.2075,0.4832 -0.5625,0.4832 -0.33031,0 -0.601,-0.17262 -0.7735,-0.48811 l -0.6264,0.4832 c 0.3186,0.36971 0.7389,0.6458 1.3848,0.6458 z m 7.61852,0 c 1.02549,0 1.86958,-0.82328 1.90189,-1.8488 0.032,-1.02048 -0.7602,-1.84881 -1.78569,-1.84881 -1.02552,0 -1.86503,0.82833 -1.89703,1.84881 -0.0323,1.02552 0.7553,1.8488 1.78083,1.8488 z m 0.0207,-0.66058 c -0.65567,0 -1.15658,-0.53252 -1.13598,-1.18822 0.0206,-0.65571 0.55499,-1.18809 1.2107,-1.18809 0.65571,0 1.16159,0.53238 1.14099,1.18809 -0.0206,0.6557 -0.56,1.18822 -1.21571,1.18822 z m 6.45072,0.6113 h 1.98681 l 0.0202,-0.64093 h -1.31628 l 0.0929,-2.95808 h -0.67049 z m 7.80439,0.0493 c 0.7444,0 1.31071,-0.44859 1.33721,-1.2917 l 0.074,-2.35659 h -0.67052 l -0.0753,2.3961 c -0.0111,0.3549 -0.30081,0.63098 -0.65091,0.63098 -0.35489,0 -0.61249,-0.27608 -0.60141,-0.63098 l 0.0753,-2.3961 h -0.67049 l -0.074,2.35659 c -0.0265,0.84311 0.5067,1.2917 1.2561,1.2917 z m 7.6913,1.1339 c 0.43381,0 0.77611,-0.22179 0.78571,-0.52751 0.008,-0.24158 -0.18429,-0.40919 -0.55461,-0.39437 l 0.007,-0.2219 c 0.6574,-0.0542 1.19211,-0.43871 1.50601,-1.01561 l -0.60121,-0.32039 c -0.20468,0.3944 -0.55869,0.67539 -1.0566,0.67539 -0.67049,0 -1.152,-0.52261 -1.13139,-1.17831 0.021,-0.67049 0.5353,-1.18809 1.2205,-1.18809 0.46842,0 0.7717,0.23171 0.9719,0.60639 l 0.59849,-0.37468 c -0.29859,-0.53743 -0.87408,-0.89243 -1.54958,-0.89243 -1.0402,0 -1.8731,0.7741 -1.90679,1.84881 -0.0298,0.9466 0.57227,1.71079 1.5349,1.82911 l -0.0161,0.5127 h 0.24653 c 0.19229,0 0.28448,0.0444 0.28169,0.1331 -0.002,0.0838 -0.13289,0.15289 -0.27591,0.15289 -0.17261,0 -0.25901,-0.074 -0.36939,-0.16771 l -0.3919,0.23171 c 0.1869,0.17261 0.43949,0.2909 0.70079,0.2909 z m 8.024,-1.1339 c 1.02549,0 1.86962,-0.82328 1.9019,-1.8488 0.032,-1.02048 -0.7602,-1.84881 -1.78569,-1.84881 -1.02549,0 -1.865,0.82833 -1.897,1.84881 -0.0323,1.02552 0.7553,1.8488 1.78079,1.8488 z m 0.0207,-0.66058 c -0.65571,0 -1.15662,-0.53252 -1.13602,-1.18822 0.0206,-0.65571 0.55503,-1.18809 1.2107,-1.18809 0.65571,0 1.16163,0.53238 1.14103,1.18809 -0.0206,0.6557 -0.56,1.18822 -1.21571,1.18822 z m -0.37652,-3.23423 c 0.004,-0.14298 0.0511,-0.21689 0.13501,-0.21689 0.0739,0 0.1367,0.0394 0.20919,0.0838 0.11141,0.0641 0.23192,0.15282 0.42422,0.15282 0.34999,0 0.52571,-0.25629 0.53848,-0.66551 h -0.38449 c -0.005,0.14792 -0.0513,0.22182 -0.14499,0.22182 -0.0838,0 -0.16091,-0.0591 -0.25252,-0.12322 -0.10167,-0.0592 -0.21319,-0.11829 -0.37578,-0.11829 -0.3205,0 -0.5212,0.26621 -0.53372,0.66548 z m 6.8272,3.84553 h 2.13473 l 0.0202,-0.64093 h -1.4642 l 0.0266,-0.84797 h 1.46421 l 0.0201,-0.64093 h -1.46421 l 0.0261,-0.82829 h 1.4642 l 0.0201,-0.64089 h -2.1347 z m 8.0361,0.0493 c 0.78881,0 1.2597,-0.5522 1.27752,-1.11908 0.0217,-0.69021 -0.5237,-0.90721 -1.0068,-1.0649 -0.3902,-0.1331 -0.72781,-0.21703 -0.71871,-0.50782 0.007,-0.23171 0.18549,-0.40919 0.5158,-0.40919 0.28102,0 0.49431,0.11338 0.64001,0.34509 l 0.56518,-0.4191 c -0.2813,-0.30071 -0.6145,-0.52261 -1.19129,-0.52261 -0.69028,0 -1.20739,0.45361 -1.22548,1.03043 -0.0216,0.68527 0.50507,0.86769 0.98827,1.02549 0.37581,0.11829 0.74252,0.21689 0.73311,0.5176 -0.008,0.25149 -0.20751,0.4832 -0.56251,0.4832 -0.3303,0 -0.60099,-0.17262 -0.7735,-0.48811 l -0.62639,0.4832 c 0.31859,0.36971 0.73889,0.6458 1.38479,0.6458"
         style="fill:#ffffff;fill-opacity:1;fill-rule:nonzero;stroke:none;stroke-width:0.352778"
         id="path896" />
    </g>
  </g>
</svg>
