<?xml version="1.0" encoding="UTF-8" standalone="no"?>
<!-- Created with Inkscape (http://www.inkscape.org/) -->

<svg
   width="91.86499mm"
   height="40.716187mm"
   viewBox="0 0 91.86499 40.716187"
   version="1.1"
   id="svg1012"
   xmlns:inkscape="http://www.inkscape.org/namespaces/inkscape"
   xmlns:sodipodi="http://sodipodi.sourceforge.net/DTD/sodipodi-0.dtd"
   xmlns="http://www.w3.org/2000/svg"
   xmlns:svg="http://www.w3.org/2000/svg">
  <sodipodi:namedview
     id="namedview1014"
     pagecolor="#ffffff"
     bordercolor="#000000"
     borderopacity="0.25"
     inkscape:showpageshadow="2"
     inkscape:pageopacity="0.0"
     inkscape:pagecheckerboard="0"
     inkscape:deskcolor="#d1d1d1"
     inkscape:document-units="mm"
     showgrid="false" />
  <defs
     id="defs1009">
    <clipPath
       clipPathUnits="userSpaceOnUse"
       id="clipPath635">
      <path
         d="m 285.179,3962.8752 h -23.9854 c -4.4158,0 -7.9948,3.5799 -7.9948,7.9951 v 0 c 0,4.4158 3.579,7.9954 7.9948,7.9954 h 23.9854 z m -0.777,31.9805 h -23.2084 c -13.2466,0 -23.9856,-10.7385 -23.9856,-23.9854 v 0 c 0,-13.2466 10.739,-23.9851 23.9856,-23.9851 h 39.9756 v 31.2032 c 0,9.2605 -7.5067,16.7673 -16.7672,16.7673"
         id="path633" />
    </clipPath>
    <linearGradient
       x1="284.76001"
       y1="3998.1499"
       x2="267.23001"
       y2="3946.23"
       gradientUnits="userSpaceOnUse"
       spreadMethod="pad"
       id="linearGradient653">
      <stop
         style="stop-opacity:1;stop-color:#91d110"
         offset="0"
         id="stop637" />
      <stop
         style="stop-opacity:1;stop-color:#91d110"
         offset="0.17"
         id="stop639" />
      <stop
         style="stop-opacity:1;stop-color:#aaff00"
         offset="0.34"
         id="stop641" />
      <stop
         style="stop-opacity:1;stop-color:#91d110"
         offset="0.51"
         id="stop643" />
      <stop
         style="stop-opacity:1;stop-color:#aaff00"
         offset="0.63"
         id="stop645" />
      <stop
         style="stop-opacity:1;stop-color:#9de709"
         offset="0.76"
         id="stop647" />
      <stop
         style="stop-opacity:1;stop-color:#91d110"
         offset="0.89"
         id="stop649" />
      <stop
         style="stop-opacity:1;stop-color:#aaff00"
         offset="1"
         id="stop651" />
    </linearGradient>
    <clipPath
       clipPathUnits="userSpaceOnUse"
       id="clipPath663">
      <path
         d="m 260.9461,4011.0959 h 24.048 c 8.8543,0 16.0317,7.1776 16.0317,16.0316 h -40.0797 c -30.9894,0 -56.1115,-25.1217 -56.1115,-56.1115 v 0 c 0,-30.9895 25.1221,-56.1115 56.1115,-56.1115 h 24.048 c 8.8543,0 16.0317,7.1779 16.0317,16.0319 v 16.0319 h -16.0317 v -16.0319 h -24.048 c -22.1351,0 -40.0796,17.9444 -40.0796,40.0796 v 0 c 0,22.1355 17.9445,40.0799 40.0796,40.0799"
         id="path661" />
    </clipPath>
    <linearGradient
       x1="291.01001"
       y1="4027.1299"
       x2="235.32001"
       y2="3921.0901"
       gradientUnits="userSpaceOnUse"
       spreadMethod="pad"
       id="linearGradient681">
      <stop
         style="stop-opacity:1;stop-color:#91d110"
         offset="0"
         id="stop665" />
      <stop
         style="stop-opacity:1;stop-color:#91d110"
         offset="0.17"
         id="stop667" />
      <stop
         style="stop-opacity:1;stop-color:#aaff00"
         offset="0.34"
         id="stop669" />
      <stop
         style="stop-opacity:1;stop-color:#91d110"
         offset="0.51"
         id="stop671" />
      <stop
         style="stop-opacity:1;stop-color:#aaff00"
         offset="0.63"
         id="stop673" />
      <stop
         style="stop-opacity:1;stop-color:#9de709"
         offset="0.76"
         id="stop675" />
      <stop
         style="stop-opacity:1;stop-color:#91d110"
         offset="0.89"
         id="stop677" />
      <stop
         style="stop-opacity:1;stop-color:#aaff00"
         offset="1"
         id="stop679" />
    </linearGradient>
    <clipPath
       clipPathUnits="userSpaceOnUse"
       id="clipPath695">
      <path
         d="m 330.2623,3936.6077 h 45.2599 c 0,23.0224 -16.2204,22.8917 -16.2204,22.8917 h -29.0395 v 11.1186 h 34.403 c 0,23.0224 -16.2204,22.7608 -16.2204,22.7608 h -18.1826 v 10.8573 h 45.2599 c 0,23.0224 -16.2204,22.8917 -16.2204,22.8917 h -51.931 v -74.5614 c 0,0 -0.1309,-15.9587 22.8915,-15.9587 z m 60.5466,67.4977 h 17.79 v -51.4083 c 0,0 -0.2617,-16.0894 22.7608,-16.0894 v 67.4977 h 33.8796 c 0,23.0224 -16.0894,22.7608 -16.0894,22.7608 h -74.4307 c 0,-23.0225 16.0897,-22.7608 16.0897,-22.7608"
         id="path693" />
    </clipPath>
    <mask
       maskUnits="userSpaceOnUse"
       x="0"
       y="0"
       width="1"
       height="1"
       id="mask717">
      <g
         id="g729">
        <g
           clip-path="url(#clipPath705)"
           id="g727">
          <g
             transform="translate(307.3706,3936.6077)"
             id="g725">
            <g
               id="g723">
              <g
                 clip-path="url(#clipPath709)"
                 id="g721">
                <path
                   d="M 0,0 H 153.4501 V 87.9866 H 0 Z"
                   style="fill:url(#linearGradient715);stroke:none"
                   id="path719" />
              </g>
            </g>
          </g>
        </g>
      </g>
    </mask>
    <clipPath
       clipPathUnits="userSpaceOnUse"
       id="clipPath705">
      <path
         d="m 307.3706,3936.6077 h 153.4501 v 87.9865 H 307.3706 Z"
         id="path703" />
    </clipPath>
    <clipPath
       clipPathUnits="userSpaceOnUse"
       id="clipPath709">
      <path
         d="M 0,0 H 153.4501 V 87.9866 H 0 Z"
         id="path707" />
    </clipPath>
    <linearGradient
       x1="72.989998"
       y1="0.94"
       x2="67.519997"
       y2="86.260002"
       gradientUnits="userSpaceOnUse"
       spreadMethod="pad"
       id="linearGradient715">
      <stop
         style="stop-opacity:1;stop-color:#ffffff"
         offset="0"
         id="stop711" />
      <stop
         style="stop-opacity:0;stop-color:#ffffff"
         offset="1"
         id="stop713" />
    </linearGradient>
  </defs>
  <g
     inkscape:label="Camada 1"
     inkscape:groupmode="layer"
     id="layer1"
     transform="translate(-20.47291,-64.290526)">
    <g
       id="g629"
       transform="matrix(0.35277777,0,0,-0.35277777,-51.788183,1484.9717)">
      <g
         id="g631"
         clip-path="url(#clipPath635)">
        <path
           d="m 285.179,3962.8752 h -23.9854 c -4.4158,0 -7.9948,3.5799 -7.9948,7.9951 v 0 c 0,4.4158 3.579,7.9954 7.9948,7.9954 h 23.9854 z m -0.777,31.9805 h -23.2084 c -13.2466,0 -23.9856,-10.7385 -23.9856,-23.9854 v 0 c 0,-13.2466 10.739,-23.9851 23.9856,-23.9851 h 39.9756 v 31.2032 c 0,9.2605 -7.5067,16.7673 -16.7672,16.7673"
           style="fill:url(#linearGradient653);stroke:none"
           id="path655" />
      </g>
    </g>
    <g
       id="g657"
       transform="matrix(0.35277777,0,0,-0.35277777,-51.788183,1484.9717)">
      <g
         id="g659"
         clip-path="url(#clipPath663)">
        <path
           d="m 260.9461,4011.0959 h 24.048 c 8.8543,0 16.0317,7.1776 16.0317,16.0316 h -40.0797 c -30.9894,0 -56.1115,-25.1217 -56.1115,-56.1115 v 0 c 0,-30.9895 25.1221,-56.1115 56.1115,-56.1115 h 24.048 c 8.8543,0 16.0317,7.1779 16.0317,16.0319 v 16.0319 h -16.0317 v -16.0319 h -24.048 c -22.1351,0 -40.0796,17.9444 -40.0796,40.0796 v 0 c 0,22.1355 17.9445,40.0799 40.0796,40.0799"
           style="fill:url(#linearGradient681);stroke:none"
           id="path683" />
      </g>
    </g>
    <path
       d="m 48.816629,94.00864 h 5.640987 v -1.410299 h -5.640987 z"
       style="fill:#80b317;fill-opacity:1;fill-rule:nonzero;stroke:none;stroke-width:0.352778"
       id="path685" />
    <path
       d="m 64.721015,96.224014 h 15.966686 c 0,-8.121791 -5.722196,-8.075683 -5.722196,-8.075683 h -10.24449 v -3.922395 h 12.136613 c 0,-8.12179 -5.722196,-8.029504 -5.722196,-8.029504 h -6.414417 v -3.830214 h 15.966686 c 0,-8.121791 -5.722196,-8.075683 -5.722196,-8.075683 H 56.645402 V 90.59414 c 0,0 -0.04618,5.629874 8.075613,5.629874 z M 86.080509,72.412326 h 6.275917 v 18.135706 c 0,0 -0.09232,5.675982 8.029504,5.675982 V 72.412326 h 11.95197 c 0,-8.121791 -5.67598,-8.029504 -5.67598,-8.029504 H 80.404421 c 0,8.121826 5.676088,8.029504 5.676088,8.029504"
       style="fill:#1a1a1a;fill-opacity:1;fill-rule:nonzero;stroke:none;stroke-width:0.352778"
       id="path687" />
    <g
       id="g689"
       transform="matrix(0.35277777,0,0,-0.35277777,-51.788183,1484.9717)">
      <g
         id="g691"
         clip-path="url(#clipPath695)">
        <g
           id="g697">
          <g
             id="g699">
            <g
               id="g701" />
            <g
               id="g731"
               mask="url(#mask717)">
              <path
                 d="m 329.6217,3936.6077 h 43.9931 c 0,22.3781 -15.7663,22.2508 -15.7663,22.2508 h -28.2268 v 10.8076 h 33.4397 c 0,22.3782 -15.7663,22.1239 -15.7663,22.1239 h -17.6734 v 10.5531 h 43.9931 c 0,22.3781 -15.7663,22.2508 -15.7663,22.2508 h -50.4777 v -72.4742 c 0,0 -0.1272,-15.512 22.2509,-15.512 z m 58.8517,65.6084 h 17.2922 v -49.9691 c 0,0 -0.2542,-15.6393 22.1239,-15.6393 v 65.6084 h 32.9312 c 0,22.3778 -15.6393,22.1238 -15.6393,22.1238 h -72.3473 c 0,-22.3781 15.6393,-22.1238 15.6393,-22.1238"
                 style="fill:#333333;fill-opacity:1;fill-rule:nonzero;stroke:none"
                 id="path733" />
            </g>
          </g>
        </g>
      </g>
    </g>
    <path
       d="m 58.050622,103.87284 c 0.788776,0 1.259699,-0.55221 1.277479,-1.11912 0.02173,-0.69018 -0.523699,-0.9072 -1.006793,-1.0649 -0.390207,-0.1331 -0.72778,-0.21699 -0.718678,-0.50778 0.0073,-0.23171 0.18549,-0.40923 0.515796,-0.40923 0.280987,0 0.494277,0.11342 0.639974,0.34513 l 0.565221,-0.4191 c -0.281305,-0.30071 -0.614504,-0.52261 -1.191296,-0.52261 -0.690315,0 -1.207417,0.4536 -1.225514,1.03039 -0.02159,0.68531 0.505107,0.8677 0.988307,1.02549 0.375814,0.11833 0.742491,0.21693 0.733107,0.51763 -0.0079,0.2515 -0.207504,0.4832 -0.562504,0.4832 -0.330306,0 -0.600992,-0.17261 -0.773501,-0.4881 l -0.626392,0.4832 c 0.318594,0.36968 0.738893,0.6458 1.384794,0.6458 z m 7.618483,0 c 1.025525,0 1.869616,-0.82332 1.901895,-1.84881 0.032,-1.02051 -0.7602,-1.8488 -1.78569,-1.8488 -1.02549,0 -1.864995,0.82829 -1.896992,1.8488 -0.03231,1.02549 0.755297,1.84881 1.780787,1.84881 z m 0.02071,-0.66062 c -0.655708,0 -1.156582,-0.53248 -1.136015,-1.18819 0.0206,-0.6557 0.555025,-1.18812 1.210733,-1.18812 0.655673,0 1.161592,0.53242 1.140989,1.18812 -0.0206,0.65571 -0.559999,1.18819 -1.215707,1.18819 z m 6.450718,0.6113 h 1.986774 l 0.02021,-0.64089 h -1.31632 l 0.09292,-2.95812 h -0.67049 z m 7.804397,0.0493 c 0.744396,0 1.310675,-0.4486 1.337169,-1.2917 l 0.07401,-2.35663 H 80.68562 l -0.07532,2.39611 c -0.01108,0.35493 -0.300778,0.63101 -0.650875,0.63101 -0.35493,0 -0.612528,-0.27608 -0.601416,-0.63101 l 0.07532,-2.39611 h -0.670524 l -0.07398,2.35663 c -0.02653,0.8431 0.506695,1.2917 1.256101,1.2917 z m 7.691296,1.13389 c 0.433775,0 0.776076,-0.22179 0.785707,-0.5275 0.0076,-0.24159 -0.184327,-0.40919 -0.554602,-0.39441 l 0.007,-0.2219 c 0.657401,-0.0542 1.192106,-0.43868 1.506008,-1.01557 l -0.601204,-0.32043 c -0.204717,0.3944 -0.558694,0.67543 -1.056605,0.67543 -0.670489,0 -1.151995,-0.52261 -1.131393,-1.17832 0.02099,-0.67049 0.535305,-1.18812 1.220505,-1.18812 0.468383,0 0.771701,0.23171 0.971903,0.60643 l 0.598487,-0.37472 c -0.298591,-0.53739 -0.874112,-0.89239 -1.549611,-0.89239 -1.040201,0 -1.873074,0.7741 -1.906799,1.8488 -0.02978,0.94661 0.572311,1.7108 1.5349,1.82909 l -0.01609,0.51272 h 0.246485 c 0.1923,0 0.284516,0.0444 0.281694,0.13311 -0.0025,0.0838 -0.132892,0.15289 -0.275873,0.15289 -0.172614,0 -0.259009,-0.074 -0.369429,-0.16771 l -0.391865,0.2317 c 0.186866,0.17262 0.43949,0.2909 0.700793,0.2909 z m 8.024001,-1.13389 c 1.02549,0 1.869581,-0.82332 1.901895,-1.84881 0.032,-1.02051 -0.7602,-1.8488 -1.78569,-1.8488 -1.025525,0 -1.86503,0.82829 -1.897027,1.8488 -0.03228,1.02549 0.755297,1.84881 1.780822,1.84881 z m 0.02067,-0.66062 c -0.655673,0 -1.156582,-0.53248 -1.13598,-1.18819 0.0206,-0.6557 0.55499,-1.18812 1.210698,-1.18812 0.655708,0 1.161591,0.53242 1.140989,1.18812 -0.0206,0.65571 -0.559999,1.18819 -1.215707,1.18819 z m -0.376485,-3.234192 c 0.0044,-0.142981 0.05112,-0.216887 0.135008,-0.216887 0.07391,0 0.136702,0.03941 0.209197,0.08378 0.111408,0.0641 0.231881,0.152788 0.42418,0.152788 0.350027,0 0.52571,-0.256293 0.538516,-0.66548 H 96.22682 c -0.0046,0.147885 -0.05129,0.221792 -0.144991,0.221792 -0.08382,0 -0.160902,-0.05909 -0.252519,-0.12319 -0.101706,-0.0592 -0.213183,-0.118322 -0.375814,-0.118322 -0.320499,0 -0.521194,0.266206 -0.533682,0.665515 z m 6.827208,3.845492 h 2.13469 l 0.0202,-0.64089 h -1.4642 l 0.0266,-0.84801 h 1.4642 l 0.0201,-0.64089 h -1.4642 l 0.0261,-0.82829 h 1.4642 l 0.0201,-0.64093 h -2.13469 z m 8.0361,0.0493 c 0.78881,0 1.2597,-0.55221 1.27751,-1.11912 0.0217,-0.69018 -0.52373,-0.9072 -1.00683,-1.0649 -0.39017,-0.1331 -0.72778,-0.21699 -0.71868,-0.50778 0.007,-0.23171 0.18549,-0.40923 0.5158,-0.40923 0.28099,0 0.49428,0.11342 0.64001,0.34513 l 0.56519,-0.4191 c -0.28131,-0.30071 -0.61451,-0.52261 -1.1913,-0.52261 -0.69032,0 -1.20742,0.4536 -1.22551,1.03039 -0.0216,0.68531 0.5051,0.8677 0.9883,1.02549 0.37582,0.11833 0.74249,0.21693 0.73311,0.51763 -0.008,0.2515 -0.2075,0.4832 -0.5625,0.4832 -0.33031,0 -0.601,-0.17261 -0.7735,-0.4881 l -0.6264,0.4832 c 0.3186,0.36968 0.7389,0.6458 1.3848,0.6458"
       style="fill:#333333;fill-opacity:1;fill-rule:nonzero;stroke:none;stroke-width:0.352778"
       id="path735" />
  </g>
</svg>
