<?xml version="1.0" encoding="UTF-8" standalone="no"?>
<!-- Created with Inkscape (http://www.inkscape.org/) -->

<svg
   width="91.773972mm"
   height="40.716106mm"
   viewBox="0 0 91.773972 40.716106"
   version="1.1"
   id="svg2362"
   xmlns:inkscape="http://www.inkscape.org/namespaces/inkscape"
   xmlns:sodipodi="http://sodipodi.sourceforge.net/DTD/sodipodi-0.dtd"
   xmlns="http://www.w3.org/2000/svg"
   xmlns:svg="http://www.w3.org/2000/svg">
  <sodipodi:namedview
     id="namedview2364"
     pagecolor="#ffffff"
     bordercolor="#666666"
     borderopacity="1.0"
     inkscape:showpageshadow="2"
     inkscape:pageopacity="0.0"
     inkscape:pagecheckerboard="0"
     inkscape:deskcolor="#d1d1d1"
     inkscape:document-units="mm"
     showgrid="false" />
  <defs
     id="defs2359" />
  <g
     inkscape:label="Camada 1"
     inkscape:groupmode="layer"
     id="layer1"
     transform="translate(-86.815142,-60.067492)">
    <path
       d="m 115.06784,82.734314 h -8.46151 c -1.5578,0 -2.82039,-1.26291 -2.82039,-2.820529 v 0 c 0,-1.557796 1.26259,-2.8206 2.82039,-2.8206 h 8.46151 z m -0.27411,-11.28201 h -8.1874 c -4.67321,0 -8.46159,3.788304 -8.46159,8.461481 v 0 c 0,4.673106 3.78838,8.46141 8.46159,8.46141 h 14.1025 V 77.3674 c 0,-3.266899 -2.6482,-5.915096 -5.9151,-5.915096"
       style="fill:#333333;fill-opacity:1;fill-rule:nonzero;stroke:none;stroke-width:0.352778"
       id="path1778" />
    <path
       d="m 106.61014,66.078511 h 8.4836 c 3.1236,0 5.65559,-2.532098 5.65559,-5.655698 h -14.13919 c -10.93241,0 -19.795,8.862483 -19.795,19.794996 v 0 c 0,10.932371 8.86259,19.794891 19.795,19.794891 h 8.4836 c 3.1236,0 5.65559,-2.532205 5.65559,-5.655699 v -4.216012 h -5.64109 c 0,0 0,0 -0.0145,4.216012 h -8.4836 c -7.80881,0 -14.13919,-6.330421 -14.13919,-14.139192 v 0 c 0,-7.808807 6.33038,-14.139298 14.13919,-14.139298"
       style="fill:#333333;fill-opacity:1;fill-rule:nonzero;stroke:none;stroke-width:0.352778"
       id="path1780" />
    <path
       d="m 130.97223,92.000904 h 15.96669 c 0,-8.121791 -5.7222,-8.075719 -5.7222,-8.075719 h -10.24449 v -3.922394 h 12.13651 c 0,-8.121791 -5.72213,-8.029505 -5.72213,-8.029505 h -6.41438 v -3.830179 h 15.96669 c 0,-8.121826 -5.7222,-8.075612 -5.7222,-8.075612 h -18.32017 v 26.303499 c 0,0 -0.0461,5.62991 8.07568,5.62991 z m 21.35949,-23.811618 h 6.27592 v 18.1356 c 0,0 -0.0923,5.676018 8.0295,5.676018 V 68.189286 h 11.95197 c 0,-8.121791 -5.67608,-8.029575 -5.67608,-8.029575 h -26.25739 c 0,8.121791 5.67608,8.029575 5.67608,8.029575"
       style="fill:#333333;fill-opacity:1;fill-rule:nonzero;stroke:none;stroke-width:0.352778"
       id="path1782" />
    <path
       d="m 124.30184,99.64969 c 0.78877,0 1.2597,-0.552203 1.27748,-1.119082 0.0217,-0.690209 -0.5237,-0.907203 -1.0068,-1.064894 -0.3902,-0.133104 -0.72778,-0.217029 -0.71868,-0.507824 0.007,-0.231705 0.18549,-0.409187 0.5158,-0.409187 0.28099,0 0.49428,0.113383 0.63997,0.345087 l 0.56523,-0.4191 c -0.28131,-0.300708 -0.61461,-0.522605 -1.19141,-0.522605 -0.69031,0 -1.20731,0.453602 -1.2254,1.030429 -0.0216,0.685271 0.5051,0.867692 0.9882,1.025489 0.37592,0.118287 0.74259,0.216888 0.73321,0.517596 -0.008,0.251495 -0.2075,0.4832 -0.5625,0.4832 -0.33031,0 -0.601,-0.172614 -0.77351,-0.488104 l -0.62649,0.4832 c 0.3187,0.369711 0.739,0.645795 1.3849,0.645795 z m 7.61848,0 c 1.02552,0 1.86962,-0.823277 1.90182,-1.848802 0.0321,-1.020481 -0.7602,-1.848803 -1.78572,-1.848803 -1.02549,0 -1.86489,0.828322 -1.89699,1.848803 -0.0322,1.025525 0.7554,1.848802 1.78089,1.848802 z m 0.0207,-0.660576 c -0.65571,0 -1.15669,-0.532518 -1.13609,-1.188226 0.0207,-0.655708 0.5551,-1.188085 1.21081,-1.188085 0.65567,0 1.16159,0.532377 1.14088,1.188085 -0.0206,0.655708 -0.55989,1.188226 -1.2156,1.188226 z m 6.45072,0.611293 h 1.98677 l 0.0201,-0.640927 h -1.31629 l 0.093,-2.958076 h -0.67049 z m 7.80439,0.04928 c 0.7444,0 1.31068,-0.448592 1.3371,-1.291696 l 0.0741,-2.35659 h -0.67049 l -0.0753,2.396101 c -0.0111,0.354895 -0.30078,0.630979 -0.65088,0.630979 -0.35493,0 -0.61253,-0.276084 -0.60141,-0.630979 l 0.0753,-2.396101 h -0.67052 l -0.0741,2.35659 c -0.0264,0.843104 0.5068,1.291696 1.2562,1.291696 z m 7.6913,1.133903 c 0.43377,0 0.77607,-0.2218 0.7857,-0.52751 0.008,-0.24158 -0.18432,-0.40919 -0.5546,-0.394373 l 0.007,-0.221898 c 0.6574,-0.05422 1.1921,-0.438714 1.50601,-1.015612 l -0.60131,-0.320392 c -0.20461,0.394405 -0.55859,0.675393 -1.0565,0.675393 -0.67049,0 -1.1521,-0.522605 -1.1315,-1.178313 0.0211,-0.67049 0.53541,-1.188085 1.22061,-1.188085 0.46838,0 0.7717,0.231704 0.9719,0.606389 l 0.59849,-0.374685 c -0.29859,-0.537422 -0.87422,-0.892422 -1.54972,-0.892422 -1.0402,0 -1.87297,0.7741 -1.9068,1.848803 -0.0297,0.946608 0.57242,1.710795 1.53501,1.829117 l -0.0161,0.512688 h 0.24649 c 0.1923,0 0.28451,0.0444 0.28169,0.13311 -0.003,0.0838 -0.13289,0.15289 -0.27587,0.15289 -0.17261,0 -0.25901,-0.074 -0.3695,-0.16771 l -0.39179,0.23171 c 0.18679,0.17261 0.43949,0.2909 0.70079,0.2909 z m 8.024,-1.133903 c 1.02549,0 1.86958,-0.823277 1.90179,-1.848802 0.0321,-1.020481 -0.7602,-1.848803 -1.78569,-1.848803 -1.02553,0 -1.86493,0.828322 -1.89703,1.848803 -0.0322,1.025525 0.7554,1.848802 1.78093,1.848802 z m 0.0207,-0.660576 c -0.65567,0 -1.15669,-0.532518 -1.13608,-1.188226 0.0207,-0.655708 0.55509,-1.188085 1.2108,-1.188085 0.65571,0 1.16159,0.532377 1.14088,1.188085 -0.0206,0.655708 -0.55989,1.188226 -1.2156,1.188226 z m -0.37659,-3.234232 c 0.005,-0.14298 0.0512,-0.216887 0.13512,-0.216887 0.0739,0 0.1367,0.03941 0.20919,0.08378 0.11141,0.06414 0.23188,0.152824 0.42418,0.152824 0.35003,0 0.52571,-0.256293 0.53852,-0.665516 h -0.38449 c -0.005,0.14792 -0.0513,0.221827 -0.145,0.221827 -0.0838,0 -0.1609,-0.05912 -0.25251,-0.123225 -0.10171,-0.0592 -0.21319,-0.118287 -0.37582,-0.118287 -0.3205,0 -0.52119,0.266207 -0.53379,0.66548 z m 6.82731,3.845525 h 2.13469 l 0.0201,-0.640927 h -1.4642 l 0.0267,-0.847972 h 1.46421 l 0.0201,-0.640926 h -1.46417 l 0.0261,-0.828287 h 1.46421 l 0.0201,-0.640891 H 168.496 Z m 8.0361,0.04928 c 0.78881,0 1.2597,-0.552203 1.27748,-1.119082 0.0217,-0.690209 -0.5237,-0.907203 -1.00679,-1.064894 -0.39021,-0.133104 -0.72778,-0.217029 -0.71868,-0.507824 0.007,-0.231705 0.18549,-0.409187 0.51579,-0.409187 0.28099,0 0.49428,0.113383 0.64001,0.345087 l 0.56519,-0.4191 c -0.28131,-0.300708 -0.61461,-0.522605 -1.1914,-0.522605 -0.69032,0 -1.20731,0.453602 -1.22541,1.030429 -0.0216,0.685271 0.50511,0.867692 0.9882,1.025489 0.37592,0.118287 0.7426,0.216888 0.73321,0.517596 -0.008,0.251495 -0.2075,0.4832 -0.5625,0.4832 -0.33031,0 -0.60099,-0.172614 -0.7735,-0.488104 l -0.6265,0.4832 c 0.3187,0.369711 0.739,0.645795 1.3849,0.645795"
       style="fill:#333333;fill-opacity:1;fill-rule:nonzero;stroke:none;stroke-width:0.352778"
       id="path1792" />
  </g>
</svg>
