<?xml version="1.0" encoding="UTF-8" standalone="no"?>
<!-- Created with Inkscape (http://www.inkscape.org/) -->

<svg
   width="91.773964mm"
   height="40.716232mm"
   viewBox="0 0 91.773964 40.716232"
   version="1.1"
   id="svg2428"
   xmlns:inkscape="http://www.inkscape.org/namespaces/inkscape"
   xmlns:sodipodi="http://sodipodi.sourceforge.net/DTD/sodipodi-0.dtd"
   xmlns="http://www.w3.org/2000/svg"
   xmlns:svg="http://www.w3.org/2000/svg">
  <sodipodi:namedview
     id="namedview2430"
     pagecolor="#ffffff"
     bordercolor="#666666"
     borderopacity="1.0"
     inkscape:showpageshadow="2"
     inkscape:pageopacity="0.0"
     inkscape:pagecheckerboard="0"
     inkscape:deskcolor="#d1d1d1"
     inkscape:document-units="mm"
     showgrid="false" />
  <defs
     id="defs2425" />
  <g
     inkscape:label="Camada 1"
     inkscape:groupmode="layer"
     id="layer1"
     transform="translate(-43.730035,-80.748312)">
    <path
       d="m 71.982737,103.41524 h -8.461516 c -1.557796,0 -2.820388,-1.26291 -2.820388,-2.8206 v 0 c 0,-1.557828 1.262592,-2.820525 2.820388,-2.820525 h 8.461516 z M 71.708629,92.133127 h -8.187408 c -4.673212,0 -8.461586,3.78841 -8.461586,8.461513 v 0 c 0,4.67307 3.788374,8.46148 8.461586,8.46148 H 77.623724 V 98.048329 c 0,-3.267005 -2.648197,-5.915202 -5.915095,-5.915202"
       style="fill:#99df0c;fill-opacity:1;fill-rule:nonzero;stroke:none;stroke-width:0.352778"
       id="path1794" />
    <path
       d="m 63.525031,86.759334 h 8.4836 c 3.1236,0 5.655592,-2.531992 5.655592,-5.655592 H 63.525031 c -10.932407,0 -19.794996,8.862483 -19.794996,19.794998 v 0 c 0,10.9323 8.862589,19.79489 19.794996,19.79489 h 8.4836 c 3.1236,0 5.655592,-2.53231 5.655592,-5.65581 v -4.21601 H 72.02313 c 0,0 0,0 -0.0145,4.21601 h -8.4836 c -7.808806,0 -14.139192,-6.33038 -14.139192,-14.13908 v 0 c 0,-7.808809 6.330386,-14.139406 14.139192,-14.139406"
       style="fill:#99df0c;fill-opacity:1;fill-rule:nonzero;stroke:none;stroke-width:0.352778"
       id="path1796" />
    <path
       d="m 87.887123,112.68183 h 15.966687 c 0,-8.12179 -5.722197,-8.07572 -5.722197,-8.07572 h -10.24449 v -3.9225 h 12.136507 c 0,-8.121787 -5.722125,-8.029465 -5.722125,-8.029465 h -6.414382 v -3.830108 h 15.966687 c 0,-8.121791 -5.722197,-8.075718 -5.722197,-8.075718 H 79.81144 v 26.303601 c 0,0 -0.04611,5.62991 8.075683,5.62991 z M 109.24662,88.870145 h 6.27591 v 18.135595 c 0,0 -0.0923,5.67609 8.02951,5.67609 V 88.870145 h 11.95197 c 0,-8.121826 -5.67609,-8.029505 -5.67609,-8.029505 h -26.25739 c 0,8.121791 5.67609,8.029505 5.67609,8.029505"
       style="fill:#99df0c;fill-opacity:1;fill-rule:nonzero;stroke:none;stroke-width:0.352778"
       id="path1798" />
    <path
       d="m 81.21673,120.33062 c 0.788776,0 1.259699,-0.5522 1.277479,-1.11908 0.0217,-0.69021 -0.523698,-0.90721 -1.006792,-1.0649 -0.390208,-0.1331 -0.727781,-0.21703 -0.718679,-0.50782 0.0073,-0.23171 0.18549,-0.40919 0.515796,-0.40919 0.280988,0 0.494277,0.11338 0.639974,0.34509 l 0.565221,-0.4191 c -0.281305,-0.30071 -0.614609,-0.52261 -1.191401,-0.52261 -0.690316,0 -1.207311,0.45361 -1.225409,1.03043 -0.02159,0.68527 0.505107,0.8677 0.988201,1.02549 0.37592,0.11829 0.742597,0.21689 0.733213,0.5176 -0.0079,0.25149 -0.207503,0.4832 -0.562504,0.4832 -0.330306,0 -0.600992,-0.17262 -0.7735,-0.48811 l -0.626498,0.4832 c 0.318699,0.36972 0.738999,0.6458 1.384899,0.6458 z m 7.618483,0 c 1.025525,0 1.869617,-0.82328 1.901825,-1.8488 0.03207,-1.02048 -0.760201,-1.84881 -1.785726,-1.84881 -1.025489,0 -1.864889,0.82833 -1.896991,1.84881 -0.03221,1.02552 0.755403,1.8488 1.780892,1.8488 z m 0.02071,-0.66058 c -0.655708,0 -1.156687,-0.53252 -1.136085,-1.18822 0.02067,-0.65568 0.555096,-1.18809 1.210804,-1.18809 0.655672,0 1.161591,0.53241 1.140883,1.18809 -0.0206,0.6557 -0.559894,1.18822 -1.215602,1.18822 z m 6.450718,0.6113 h 1.986774 l 0.02011,-0.6409 h -1.316284 l 0.09299,-2.95811 H 95.41974 Z m 7.804399,0.0493 c 0.74439,0 1.31067,-0.44859 1.33709,-1.2917 l 0.0741,-2.35659 h -0.67049 l -0.0753,2.3961 c -0.0111,0.3549 -0.30078,0.63098 -0.65087,0.63098 -0.35493,0 -0.61253,-0.27608 -0.60142,-0.63098 l 0.0753,-2.3961 h -0.67053 l -0.0741,2.35659 c -0.0264,0.84311 0.5068,1.2917 1.25621,1.2917 z m 7.69129,1.1339 c 0.43378,0 0.77608,-0.22179 0.78571,-0.52748 0.008,-0.24161 -0.18433,-0.40922 -0.5546,-0.3944 l 0.007,-0.2219 c 0.6574,-0.0542 1.19211,-0.43871 1.50601,-1.01561 l -0.60131,-0.32039 c -0.20461,0.3944 -0.55859,0.67539 -1.0565,0.67539 -0.67049,0 -1.1521,-0.52261 -1.1315,-1.17831 0.0211,-0.67049 0.53541,-1.18809 1.22061,-1.18809 0.46839,0 0.7717,0.23171 0.97191,0.60639 l 0.59848,-0.37468 c -0.29859,-0.53743 -0.87421,-0.89243 -1.54971,-0.89243 -1.0402,0 -1.87297,0.7741 -1.9068,1.84881 -0.0297,0.94661 0.57241,1.71079 1.535,1.82911 l -0.0161,0.5127 h 0.24648 c 0.1923,0 0.28452,0.0444 0.2817,0.1331 -0.003,0.0838 -0.1329,0.15289 -0.27588,0.15289 -0.17261,0 -0.25901,-0.074 -0.3695,-0.16771 l -0.39179,0.23171 c 0.1868,0.17261 0.43949,0.2909 0.70079,0.2909 z m 8.024,-1.1339 c 1.02549,0 1.86958,-0.82328 1.90179,-1.8488 0.0321,-1.02048 -0.7602,-1.84881 -1.78569,-1.84881 -1.02552,0 -1.86492,0.82833 -1.89702,1.84881 -0.0322,1.02552 0.7554,1.8488 1.78092,1.8488 z m 0.0207,-0.66058 c -0.65568,0 -1.15669,-0.53252 -1.13609,-1.18822 0.0207,-0.65568 0.5551,-1.18809 1.2108,-1.18809 0.65571,0 1.1616,0.53241 1.14089,1.18809 -0.0206,0.6557 -0.5599,1.18822 -1.2156,1.18822 z m -0.37659,-3.23423 c 0.005,-0.14298 0.0512,-0.21689 0.13511,-0.21689 0.0739,0 0.1367,0.0394 0.2092,0.0838 0.1114,0.0641 0.23188,0.15279 0.42418,0.15279 0.35002,0 0.52571,-0.25629 0.53851,-0.66551 h -0.38449 c -0.005,0.14792 -0.0513,0.22182 -0.14499,0.22182 -0.0838,0 -0.1609,-0.0591 -0.25252,-0.12322 -0.10171,-0.0592 -0.21318,-0.11829 -0.37581,-0.11829 -0.3205,0 -0.5212,0.26621 -0.53379,0.66548 z m 6.8273,3.84553 h 2.1347 l 0.0201,-0.6409 h -1.46421 l 0.0267,-0.848 h 1.4642 l 0.0201,-0.64093 h -1.46416 l 0.0261,-0.82829 h 1.4642 l 0.0201,-0.64089 h -2.1347 z m 8.03611,0.0493 c 0.78881,0 1.25969,-0.5522 1.27747,-1.11908 0.0217,-0.69021 -0.52369,-0.90721 -1.00679,-1.0649 -0.39021,-0.1331 -0.72778,-0.21703 -0.71868,-0.50782 0.007,-0.23171 0.18549,-0.40919 0.5158,-0.40919 0.28099,0 0.49428,0.11338 0.64001,0.34509 l 0.56518,-0.4191 c -0.2813,-0.30071 -0.61461,-0.52261 -1.1914,-0.52261 -0.69031,0 -1.20731,0.45361 -1.22541,1.03043 -0.0216,0.68527 0.50511,0.8677 0.9882,1.02549 0.37592,0.11829 0.7426,0.21689 0.73322,0.5176 -0.008,0.25149 -0.20751,0.4832 -0.56251,0.4832 -0.3303,0 -0.60099,-0.17262 -0.7735,-0.48811 l -0.62649,0.4832 c 0.31869,0.36972 0.73899,0.6458 1.3849,0.6458"
       style="fill:#99df0c;fill-opacity:1;fill-rule:nonzero;stroke:none;stroke-width:0.352778"
       id="path1808" />
  </g>
</svg>
